<?xml version="1.0" standalone="no"?>
<!DOCTYPE svg PUBLIC "-//W3C//DTD SVG 20010904//EN"
 "http://www.w3.org/TR/2001/REC-SVG-20010904/DTD/svg10.dtd">
<svg version="1.0" xmlns="http://www.w3.org/2000/svg"
 width="300.000000pt" height="155.000000pt" viewBox="0 0 300.000000 155.000000"
 preserveAspectRatio="xMidYMid meet">
<metadata>
Created by potrace 1.16, written by Peter Selinger 2001-2019
</metadata>
<g transform="translate(0.000000,155.000000) scale(0.100000,-0.100000)"
fill="#000000" stroke="none">
<path d="M0 1008 c1 -463 3 -538 14 -512 58 132 228 193 362 129 45 -21 124
-95 124 -116 0 -9 -35 -30 -86 -53 l-41 -18 -31 30 c-39 38 -80 47 -126 28
-97 -40 -100 -168 -5 -216 47 -25 86 -17 131 25 24 22 36 25 103 25 74 0 76
-1 70 -22 -58 -195 -312 -253 -451 -102 -23 24 -46 59 -52 77 -8 25 -10 -2
-11 -126 l-1 -157 286 2 286 3 47 106 48 106 -64 132 c-34 74 -63 135 -63 137
0 2 -16 36 -35 75 -19 40 -35 76 -35 81 0 4 38 8 85 8 48 0 85 -4 85 -10 0 -5
11 -34 25 -65 53 -118 72 -161 77 -175 5 -14 20 14 92 173 14 32 26 62 26 67
0 6 37 10 85 10 49 0 85 -4 85 -10 0 -5 -17 -47 -39 -92 -21 -46 -48 -105 -61
-133 -12 -27 -34 -75 -48 -105 -13 -30 -51 -112 -83 -182 l-58 -128 1130 0
1129 0 0 60 0 60 -154 0 c-173 0 -221 12 -284 73 -58 55 -77 102 -77 192 0
119 44 191 150 244 41 20 57 23 124 18 43 -2 90 -12 109 -22 44 -23 101 -80
118 -119 11 -27 13 46 14 507 l0 537 -577 0 c-568 -1 -577 -1 -526 -19 28 -9
69 -29 90 -43 35 -23 51 -26 154 -30 137 -4 181 -22 277 -110 34 -32 74 -63
88 -68 14 -6 99 -10 189 -10 135 0 166 -3 179 -16 19 -18 20 -28 6 -55 -9 -16
-22 -19 -93 -19 -93 0 -113 -9 -188 -83 -25 -25 -68 -59 -95 -75 -55 -34 -164
-58 -222 -48 -24 3 -41 1 -52 -8 -8 -8 -39 -26 -68 -41 -49 -25 -59 -27 -140
-22 -65 3 -99 11 -136 29 l-49 25 -66 -26 c-60 -23 -82 -25 -258 -29 -184 -4
-192 -3 -202 16 -14 27 -4 51 23 56 11 3 91 7 176 10 149 5 280 28 252 44 -5
4 -24 24 -40 45 -17 21 -33 33 -36 28 -4 -5 -37 -20 -74 -33 -62 -21 -84 -23
-282 -23 l-215 0 -3 34 c-2 20 2 37 10 42 7 5 95 9 195 9 172 0 283 12 283 30
0 16 -71 20 -361 20 l-299 0 -11 24 c-8 17 -8 29 1 45 l11 22 327 -3 c312 -3
329 -5 375 -26 54 -24 65 -22 111 26 l28 30 -38 13 c-22 7 -122 15 -224 18
l-185 6 0 35 0 35 170 3 c170 3 265 -7 315 -33 23 -12 28 -10 64 19 l38 33
-43 19 c-35 15 -77 20 -204 24 l-160 5 0 38 c0 36 -1 37 -35 36 -19 0 -29 -3
-22 -6 15 -6 16 -45 0 -61 -17 -17 -53 -15 -68 3 -7 8 -10 26 -8 40 l5 25
-693 0 -694 0 0 -542z m1300 382 c8 -14 8 -26 0 -40 -10 -19 -19 -20 -158 -18
-145 3 -147 3 -150 26 -7 50 -3 52 152 52 135 0 146 -1 156 -20z m-642 -132
c17 -17 15 -53 -3 -68 -8 -7 -25 -10 -40 -6 -20 5 -25 12 -25 40 0 18 3 36 7
39 11 11 48 8 61 -5z m230 0 c7 -7 12 -21 12 -33 0 -35 -20 -45 -90 -45 -70 0
-90 10 -90 45 0 35 20 45 90 45 38 0 71 -5 78 -12z m173 -138 c24 -13 26 -65
3 -74 -34 -13 -83 -6 -94 13 -14 27 -13 37 6 55 18 18 56 21 85 6z m139 -419
l0 -80 28 15 c44 23 148 18 207 -10 55 -25 109 -80 133 -135 19 -44 21 -153 4
-202 -7 -20 -32 -57 -55 -83 -102 -110 -278 -113 -385 -7 -66 66 -67 72 -70
339 l-3 242 70 0 71 0 0 -79z m805 -75 c55 -25 110 -81 131 -132 8 -19 14 -63
14 -99 l0 -65 -181 0 c-199 0 -212 -5 -125 -49 l49 -24 41 21 c33 18 58 22
124 22 45 0 82 -3 82 -7 0 -19 -54 -93 -84 -117 -109 -83 -255 -74 -353 23
-76 74 -100 171 -67 271 49 149 225 224 369 156z m465 -46 l0 -69 -39 -11
c-26 -7 -48 -22 -63 -43 -21 -29 -23 -44 -26 -184 l-3 -153 -76 0 -75 0 5 158
c2 86 9 174 16 194 29 91 139 178 223 178 l38 0 0 -70z"/>
<path d="M1273 495 c-58 -25 -86 -96 -60 -157 11 -26 27 -41 62 -58 l47 -23
44 21 c54 26 78 69 71 124 -6 46 -29 75 -74 94 -40 17 -49 17 -90 -1z"/>
<path d="M1850 499 c-28 -12 -60 -38 -60 -51 0 -4 45 -8 101 -8 107 0 117 6
68 42 -31 23 -77 30 -109 17z"/>
<path d="M2145 1358 c59 -50 117 -79 166 -85 58 -7 62 3 17 38 -49 36 -107 60
-163 66 l-50 6 30 -25z"/>
<path d="M1958 1342 c-16 -10 -28 -20 -28 -24 0 -4 19 -28 43 -54 l43 -46 58
17 59 17 -29 23 c-16 13 -45 37 -64 54 -40 35 -44 36 -82 13z"/>
<path d="M1813 1203 l-41 -47 35 -43 35 -43 49 41 c27 22 49 44 49 48 0 10
-70 91 -78 91 -4 -1 -26 -22 -49 -47z"/>
<path d="M2155 1168 c-27 -5 -54 -13 -58 -17 -10 -10 37 -45 86 -66 l34 -14
54 55 53 54 -59 -1 c-33 -1 -82 -6 -110 -11z"/>
<path d="M2485 1173 c-25 -7 -97 -56 -130 -89 l-24 -24 24 0 c39 0 114 38 158
80 40 38 41 40 17 39 -14 -1 -34 -4 -45 -6z"/>
<path d="M1959 1051 l-41 -39 33 -10 c66 -21 98 -23 138 -11 40 12 56 29 27
29 -8 0 -35 16 -60 35 -26 19 -48 35 -51 35 -3 0 -24 -17 -46 -39z"/>
<path d="M2713 503 c-12 -2 -36 -20 -53 -39 -23 -27 -30 -44 -30 -78 0 -81 62
-126 176 -126 l64 0 0 70 c0 75 -12 111 -52 146 -24 23 -69 34 -105 27z"/>
</g>
</svg>
