<svg version="1.1" id="Layer_1" xmlns="http://www.w3.org/2000/svg" xmlns:xlink="http://www.w3.org/1999/xlink" x="0px" y="0px"
	 width="100%" viewBox="0 0 225 225" enable-background="new 0 0 225 225" xml:space="preserve">
<path fill="#000000" opacity="1.000000" stroke="none" 
	d="
M1.000000,222.000000 
	C1.000000,148.405807 1.000000,74.811600 1.000000,1.000000 
	C75.354088,1.000000 149.708389,1.000000 224.531601,1.468657 
	C225.000549,72.899254 224.992188,143.861191 225.042557,214.823105 
	C225.044022,216.882294 225.666870,218.941040 226.000000,221.000000 
	C226.000000,221.000000 226.000000,221.500000 225.531372,221.754974 
	C150.375153,222.006638 75.687576,222.003311 1.000000,222.000000 
M147.003738,76.145004 
	C147.003754,65.814034 147.023636,55.483017 146.997803,45.152115 
	C146.975418,36.205299 142.118927,31.255215 133.138718,31.203548 
	C120.142395,31.128775 107.144943,31.123589 94.148705,31.204996 
	C85.303055,31.260403 80.226639,36.378307 80.172272,45.177143 
	C80.113594,54.674404 80.308372,64.175446 80.109207,73.668892 
	C79.963303,80.623703 82.262512,85.888802 89.172150,88.570030 
	C81.365662,101.846161 73.806862,114.911583 65.946045,127.792709 
	C65.005005,129.334717 62.466057,130.632736 60.592377,130.741150 
	C54.281658,131.106247 47.935627,130.803558 41.605488,130.905029 
	C33.626884,131.032913 28.968935,135.637512 28.872452,143.670822 
	C28.746391,154.166672 28.742857,164.666397 28.872459,175.162155 
	C28.967737,182.878265 34.047440,187.850845 41.816547,187.900635 
	C55.312618,187.987106 68.809883,187.973450 82.306168,187.905701 
	C89.935974,187.867386 95.278687,183.390594 95.540756,175.875259 
	C95.935287,164.561554 95.885841,153.212753 95.481033,141.898331 
	C95.245483,135.314621 91.168655,131.761566 84.603798,131.063110 
	C83.202919,130.914062 81.785812,130.917587 79.824203,130.824677 
	C85.650764,120.915230 91.157158,111.490318 96.727379,102.103279 
	C99.333214,97.711891 101.110809,91.679359 105.000862,89.520058 
	C108.963684,87.320374 115.077011,88.714630 120.212410,89.066063 
	C121.912338,89.182396 124.143669,90.554840 125.035995,92.020332 
	C132.023209,103.495605 138.750900,115.129059 145.535767,126.727104 
	C146.242508,127.935211 146.800461,129.230362 147.508484,130.647308 
	C136.424576,131.573059 131.378021,135.585129 131.274918,143.572037 
	C131.139420,154.067657 131.125412,164.568085 131.281555,175.063141 
	C131.395874,182.746552 136.575073,187.838837 144.247269,187.895767 
	C157.909760,187.997162 171.574081,187.997314 185.236572,187.896179 
	C192.975128,187.838882 197.951035,182.718231 197.987274,174.990387 
	C198.036484,164.493240 198.039978,153.995483 197.984238,143.498398 
	C197.943848,135.891663 193.225357,131.059998 185.618027,130.917358 
	C178.955338,130.792435 172.285645,130.986664 165.626038,130.795914 
	C164.230316,130.755920 162.221878,130.036896 161.583527,128.976166 
	C153.561005,115.645424 145.738541,102.194283 137.813965,88.687172 
	C143.324142,86.422180 146.695145,82.905533 147.003738,76.145004 
z"/>
<path fill="#FDFDFD" opacity="1.000000" stroke="none" 
	d="
M1.000000,222.500000 
	C75.687576,222.003311 150.375153,222.006638 225.531372,222.004974 
	C226.000000,223.330460 226.000000,224.660934 226.000000,225.993546 
	C151.000000,225.995697 76.000000,225.995697 1.000000,225.994614 
	C1.000000,224.995682 1.000000,223.997849 1.000000,222.500000 
z"/>
<path fill="#1B1B1B" opacity="1.000000" stroke="none" 
	d="
M226.000000,220.531342 
	C225.666870,218.941040 225.044022,216.882294 225.042557,214.823105 
	C224.992188,143.861191 225.000549,72.899254 225.000259,1.468657 
	C225.333328,2.496364 225.957275,3.992534 225.958267,5.489120 
	C226.006073,77.013611 226.000000,148.538147 226.000000,220.531342 
z"/>
<path fill="#FDFDFD" opacity="1.000000" stroke="none" 
	d="
M147.002899,76.596542 
	C146.695145,82.905533 143.324142,86.422180 137.813965,88.687172 
	C145.738541,102.194283 153.561005,115.645424 161.583527,128.976166 
	C162.221878,130.036896 164.230316,130.755920 165.626038,130.795914 
	C172.285645,130.986664 178.955338,130.792435 185.618027,130.917358 
	C193.225357,131.059998 197.943848,135.891663 197.984238,143.498398 
	C198.039978,153.995483 198.036484,164.493240 197.987274,174.990387 
	C197.951035,182.718231 192.975128,187.838882 185.236572,187.896179 
	C171.574081,187.997314 157.909760,187.997162 144.247269,187.895767 
	C136.575073,187.838837 131.395874,182.746552 131.281555,175.063141 
	C131.125412,164.568085 131.139420,154.067657 131.274918,143.572037 
	C131.378021,135.585129 136.424576,131.573059 147.508484,130.647308 
	C146.800461,129.230362 146.242508,127.935211 145.535767,126.727104 
	C138.750900,115.129059 132.023209,103.495605 125.035995,92.020332 
	C124.143669,90.554840 121.912338,89.182396 120.212410,89.066063 
	C115.077011,88.714630 108.963684,87.320374 105.000862,89.520058 
	C101.110809,91.679359 99.333214,97.711891 96.727379,102.103279 
	C91.157158,111.490318 85.650764,120.915230 79.824203,130.824677 
	C81.785812,130.917587 83.202919,130.914062 84.603798,131.063110 
	C91.168655,131.761566 95.245483,135.314621 95.481033,141.898331 
	C95.885841,153.212753 95.935287,164.561554 95.540756,175.875259 
	C95.278687,183.390594 89.935974,187.867386 82.306168,187.905701 
	C68.809883,187.973450 55.312618,187.987106 41.816547,187.900635 
	C34.047440,187.850845 28.967737,182.878265 28.872459,175.162155 
	C28.742857,164.666397 28.746391,154.166672 28.872452,143.670822 
	C28.968935,135.637512 33.626884,131.032913 41.605488,130.905029 
	C47.935627,130.803558 54.281658,131.106247 60.592377,130.741150 
	C62.466057,130.632736 65.005005,129.334717 65.946045,127.792709 
	C73.806862,114.911583 81.365662,101.846161 89.172150,88.570030 
	C82.262512,85.888802 79.963303,80.623703 80.109207,73.668892 
	C80.308372,64.175446 80.113594,54.674404 80.172272,45.177143 
	C80.226639,36.378307 85.303055,31.260403 94.148705,31.204996 
	C107.144943,31.123589 120.142395,31.128775 133.138718,31.203548 
	C142.118927,31.255215 146.975418,36.205299 146.997803,45.152115 
	C147.023636,55.483017 147.003754,65.814034 147.002899,76.596542 
z"/>
</svg>