<svg version="1.1" id="Layer_1" xmlns="http://www.w3.org/2000/svg" xmlns:xlink="http://www.w3.org/1999/xlink" x="0px" y="0px"
	 width="100%" viewBox="0 0 205 246" enable-background="new 0 0 205 246" xml:space="preserve">
<path fill="#FEFEFE" opacity="1.000000" stroke="none" 
	d="
M102.000000,1.000000 
	C136.602295,1.000000 171.204575,1.000000 206.000000,1.000000 
	C206.000000,44.687370 206.000000,88.375031 205.624130,132.388580 
	C202.159073,109.793442 192.764648,90.014984 176.696426,74.114861 
	C170.579193,80.199615 164.746567,86.001282 158.941818,91.775223 
	C176.559631,110.982040 184.192490,133.709747 178.908279,159.848282 
	C173.058777,188.782898 155.606918,208.554443 127.713989,217.624680 
	C99.405647,226.830002 73.221664,220.992096 51.424572,200.566559 
	C19.324467,170.486282 19.334044,121.764244 50.736382,90.140587 
	C67.395515,73.364037 84.146172,56.677628 100.685982,39.784542 
	C102.210678,38.227272 103.180771,35.484795 103.249763,33.256775 
	C103.533142,24.106194 103.416855,14.941161 103.309937,5.783050 
	C103.295731,4.566270 102.491173,3.358716 102.037010,1.860281 
	C102.014259,1.382448 102.007133,1.191224 102.000000,1.000000 
M151.565933,47.158257 
	C145.817673,40.530563 139.180954,39.151882 132.748444,43.249184 
	C127.373840,46.672634 125.199898,53.952694 127.775452,59.902725 
	C130.794113,66.876389 138.644394,70.005203 145.584595,67.000748 
	C152.998108,63.791386 155.509644,56.217735 151.565933,47.158257 
z"/>
<path fill="#010101" opacity="1.000000" stroke="none" 
	d="
M102.052628,2.146892 
	C102.491173,3.358716 103.295731,4.566270 103.309937,5.783050 
	C103.416855,14.941161 103.533142,24.106194 103.249763,33.256775 
	C103.180771,35.484795 102.210678,38.227272 100.685982,39.784542 
	C84.146172,56.677628 67.395515,73.364037 50.736382,90.140587 
	C19.334044,121.764244 19.324467,170.486282 51.424572,200.566559 
	C73.221664,220.992096 99.405647,226.830002 127.713989,217.624680 
	C155.606918,208.554443 173.058777,188.782898 178.908279,159.848282 
	C184.192490,133.709747 176.559631,110.982040 158.941818,91.775223 
	C164.746567,86.001282 170.579193,80.199615 176.696426,74.114861 
	C192.764648,90.014984 202.159073,109.793442 205.624130,132.857239 
	C206.000000,134.388885 206.000000,135.777786 205.689636,137.718323 
	C205.300201,139.147797 205.221146,140.025604 205.094360,141.328033 
	C205.364426,143.835098 205.682220,145.917542 206.000000,148.000000 
	C206.000000,150.370560 206.000000,152.741104 205.635620,155.709183 
	C197.711441,200.948090 172.357605,230.075394 129.090149,243.469940 
	C124.167587,244.993851 119.035126,245.839722 114.000000,247.000000 
	C106.312424,247.000000 98.624847,247.000000 90.341171,246.631042 
	C88.126862,245.896057 86.512054,245.514114 84.889931,245.166321 
	C44.182087,236.438049 17.633238,212.104996 5.011648,172.528412 
	C3.389836,167.443039 2.323601,162.180481 0.999999,157.000000 
	C1.000000,155.611115 1.000000,154.222214 1.351987,152.257126 
	C1.759503,150.142929 1.815033,148.604919 1.917430,146.651917 
	C1.928020,145.125168 1.891744,144.013412 1.889110,142.495300 
	C1.615168,140.392624 1.307584,138.696304 1.000000,137.000000 
	C1.000000,135.933334 1.000000,134.866653 1.369359,133.260834 
	C5.422195,107.253960 17.070406,86.079941 35.806431,68.536751 
	C44.913582,60.009403 53.563553,50.991745 62.370098,42.145885 
	C75.620827,28.836000 88.827332,15.482089 102.052628,2.146892 
z"/>
<path fill="#FEFEFE" opacity="1.000000" stroke="none" 
	d="
M102.037010,1.860282 
	C88.827332,15.482089 75.620827,28.836000 62.370098,42.145885 
	C53.563553,50.991745 44.913582,60.009403 35.806431,68.536751 
	C17.070406,86.079941 5.422195,107.253960 1.369359,132.860840 
	C1.000000,89.082764 1.000000,45.165524 1.000000,1.000000 
	C34.353817,1.000000 67.708252,1.000000 101.531342,1.000000 
	C102.007133,1.191224 102.014259,1.382448 102.037010,1.860282 
z"/>
<path fill="#FDFDFD" opacity="1.000000" stroke="none" 
	d="
M114.468658,247.000000 
	C119.035126,245.839722 124.167587,244.993851 129.090149,243.469940 
	C172.357605,230.075394 197.711441,200.948090 205.635620,156.153351 
	C206.000000,186.260651 206.000000,216.521286 206.000000,247.000000 
	C175.646118,247.000000 145.291718,247.000000 114.468658,247.000000 
z"/>
<path fill="#FDFDFD" opacity="1.000000" stroke="none" 
	d="
M0.999999,157.468658 
	C2.323601,162.180481 3.389836,167.443039 5.011648,172.528412 
	C17.633238,212.104996 44.182087,236.438049 84.889931,245.166321 
	C86.512054,245.514114 88.126862,245.896057 89.872543,246.631042 
	C60.406013,247.000000 30.812025,247.000000 1.000000,247.000000 
	C1.000000,217.312790 1.000000,187.625061 0.999999,157.468658 
z"/>
<path fill="#333333" opacity="1.000000" stroke="none" 
	d="
M206.000000,147.562500 
	C205.682220,145.917542 205.364426,143.835098 205.308136,141.355804 
	C205.569611,140.958954 206.000000,141.000000 206.000000,141.000000 
	C206.000000,143.041672 206.000000,145.083328 206.000000,147.562500 
z"/>
<path fill="#545454" opacity="1.000000" stroke="none" 
	d="
M1.000000,137.428467 
	C1.307584,138.696304 1.615168,140.392624 1.676148,142.523102 
	C1.429544,142.957291 1.000000,143.000000 1.000000,143.000000 
	C1.000000,141.285645 1.000000,139.571289 1.000000,137.428467 
z"/>
<path fill="#484848" opacity="1.000000" stroke="none" 
	d="
M1.870563,147.066925 
	C1.815033,148.604919 1.759503,150.142929 1.351987,151.840454 
	C1.000000,150.611115 1.000000,149.222214 1.217894,147.430099 
	C1.435788,147.026871 1.870563,147.066925 1.870563,147.066925 
z"/>
<path fill="#2F2F2F" opacity="1.000000" stroke="none" 
	d="
M1.917429,146.651917 
	C1.870563,147.066925 1.435788,147.026871 1.217894,147.013428 
	C1.000000,145.933350 1.000000,144.866699 1.000000,143.400024 
	C1.000000,143.000000 1.429544,142.957291 1.642506,142.929474 
	C1.891744,144.013412 1.928020,145.125168 1.917429,146.651917 
z"/>
<path fill="#5D5D5D" opacity="1.000000" stroke="none" 
	d="
M206.000000,140.625000 
	C206.000000,141.000000 205.569611,140.958954 205.355835,140.931183 
	C205.221146,140.025604 205.300201,139.147797 205.689636,138.134979 
	C206.000000,138.750000 206.000000,139.500000 206.000000,140.625000 
z"/>
<path fill="#030303" opacity="1.000000" stroke="none" 
	d="
M151.756271,47.487007 
	C155.509644,56.217735 152.998108,63.791386 145.584595,67.000748 
	C138.644394,70.005203 130.794113,66.876389 127.775452,59.902725 
	C125.199898,53.952694 127.373840,46.672634 132.748444,43.249184 
	C139.180954,39.151882 145.817673,40.530563 151.756271,47.487007 
z"/>
</svg>