<?xml version="1.0" standalone="no"?>
<!DOCTYPE svg PUBLIC "-//W3C//DTD SVG 20010904//EN"
 "http://www.w3.org/TR/2001/REC-SVG-20010904/DTD/svg10.dtd">
<svg version="1.0" xmlns="http://www.w3.org/2000/svg"
 width="50.000000pt" height="50.000000pt" viewBox="0 0 50.000000 50.000000"
 preserveAspectRatio="xMidYMid meet">

<g transform="translate(0.000000,50.000000) scale(0.100000,-0.100000)"
fill="#000000" stroke="none">
<path d="M123 477 c-46 -17 -47 -21 -14 -56 25 -27 36 -31 80 -31 51 0 51 0
51 33 0 25 -6 36 -29 50 -33 20 -44 20 -88 4z"/>
<path d="M288 472 c-21 -13 -28 -24 -28 -49 0 -33 0 -33 51 -33 44 0 55 4 80
32 33 34 31 40 -20 57 -44 14 -51 14 -83 -7z"/>
<path d="M62 358 c-7 -7 -12 -20 -12 -30 0 -15 10 -18 70 -19 39 -1 74 -2 79
-3 4 -1 20 14 35 32 l28 32 -94 0 c-60 0 -98 -4 -106 -12z"/>
<path d="M284 345 c-9 -14 -15 -27 -13 -29 2 -2 36 -6 75 -7 70 -3 72 -3 99
29 l27 32 -86 0 c-80 0 -87 -1 -102 -25z"/>
<path d="M96 238 l48 -61 -30 6 c-26 5 -34 1 -57 -29 l-28 -34 89 0 c129 0
142 23 66 121 -43 57 -47 59 -90 59 l-45 0 47 -62z"/>
<path d="M254 274 c-12 -46 3 -97 37 -128 27 -24 38 -27 70 -23 21 3 48 12 61
21 22 16 22 16 -14 16 -49 0 -78 36 -78 96 0 44 0 44 -35 44 -29 0 -36 -4 -41
-26z"/>
<path d="M260 75 l0 -66 33 17 c36 18 77 53 77 66 0 4 -10 8 -22 8 -13 0 -38
9 -55 20 l-33 20 0 -65z"/>
<path d="M220 110 c-8 -5 -32 -10 -52 -10 -21 0 -38 -4 -38 -8 0 -13 41 -48
78 -66 l32 -17 0 56 c0 30 -1 55 -2 55 -2 0 -10 -5 -18 -10z"/>
</g>
</svg>
